<?xml version="1.0" encoding="UTF-8"?>
<svg id="Layer_2" data-name="Layer 2" xmlns="http://www.w3.org/2000/svg" viewBox="0 0 39.85 9.09">
  <defs>
    <style>
      .cls-1 {
        fill: #414042;
      }
    </style>
  </defs>
  <g id="Layer_1-2" data-name="Layer 1">
    <g>
      <path class="cls-1" d="M0,9.09h5.99c.26,0,.46-.08.64-.26l.9-.9c.18-.18.27-.4.27-.65v-1.27c0-.26-.09-.47-.27-.65l-.82-.82.82-.82c.18-.18.27-.4.27-.65v-1.24c0-.26-.09-.47-.27-.65l-.91-.91C6.44.09,6.23,0,5.99,0H0v9.09ZM5.62,7.62H1.55s0-2.36,0-2.36h3.71c.09,0,.16.03.23.1l.66.66c.07.07.1.14.1.23v.74c0,.09-.03.16-.1.23l-.3.3c-.06.06-.14.1-.23.1ZM5.29,3.82H1.55s0-2.35,0-2.35h4.07c.09,0,.16.03.23.1l.3.3c.07.07.1.14.1.23v.76c0,.09-.03.16-.1.23l-.63.63c-.06.06-.14.1-.23.1Z"/>
      <path class="cls-1" d="M21.99,7.68l1.14,1.14c.18.18.4.27.65.27h3.97c.25,0,.47-.09.65-.27l1.13-1.13c.18-.18.27-.4.27-.65v-1.81c0-.51-.4-.96-.91-1.02h0s-4.89-.75-4.89-.75c-.16-.02-.29-.16-.29-.33v-.79c0-.08.03-.17.1-.23l.54-.54c.07-.07.14-.1.23-.1h2.88c.09,0,.16.03.23.1l.89.89,1.03-1.04-1.14-1.14C28.29.09,28.07,0,27.82,0h-3.6c-.25,0-.47.09-.65.27l-1.13,1.13c-.18.18-.27.4-.27.65v1.72c0,.51.4.96.91,1.02l4.88.75c.16.02.31.17.31.33v.88c0,.08-.03.17-.1.23l-.54.54c-.07.07-.14.1-.23.1h-3.25c-.09,0-.16-.03-.23-.1l-.89-.89-1.03,1.04Z"/>
      <path class="cls-1" d="M32.99,9.09h6.86v-1.47h-5.31s0-2.19,0-2.19h4.94v-1.47h-4.94s0-2.49,0-2.49h5.31V0h-6.86v9.09Z"/>
      <path class="cls-1" d="M18.37,9.09h1.54S16.72.46,16.72.46C16.61.19,16.34,0,16.05,0h-1.94c-.3,0-.56.19-.67.46l-3.19,8.63h1.54s.5-1.34.5-1.34l2.79-1.05,2.74.93.54,1.46ZM12.95,5.98l1.58-4.26c.03-.07.1-.12.18-.12h.75c.08,0,.15.05.18.12l1.55,4.19-2.13-.72-2.11.79Z"/>
    </g>
  </g>
</svg>