<?xml version="1.0" encoding="UTF-8"?>
<svg id="Layer_2" data-name="Layer 2" xmlns="http://www.w3.org/2000/svg" viewBox="0 0 40.73 43.04">
  <defs>
    <style>
      .cls-1 {
        fill: #414042;
      }
    </style>
  </defs>
  <g id="BASE">
    <g>
      <path class="cls-1" d="M39.89,40.41l-15.08-.98c-.46-.03-.8-.55-.72-1.13l1.77-13.93c.1-.77.84-1.11,1.3-.6l13.31,14.91c.55.62.17,1.78-.57,1.73Z"/>
      <path class="cls-1" d="M25.23,11.91l-3.85,30.23c-.07.6-.55.9-1.02.9s-.95-.3-1.02-.9l-3.85-30.23c-.16-1.21.01-2.43.49-3.55l3.21-7.59c.22-.52.7-.77,1.17-.77s.95.25,1.17.77l3.21,7.59c.48,1.12.65,2.34.49,3.55Z"/>
      <path class="cls-1" d="M.84,40.41l15.08-.98c.46-.03.8-.55.72-1.13l-1.77-13.93c-.1-.77-.84-1.11-1.3-.6L.26,38.68c-.55.62-.17,1.78.57,1.73Z"/>
    </g>
  </g>
</svg>