<?xml version="1.0" encoding="UTF-8"?>
<svg id="Layer_2" data-name="Layer 2" xmlns="http://www.w3.org/2000/svg" viewBox="0 0 249.68 21.17">
  <defs>
    <style>
      .cls-1 {
        fill: #fff;
      }

      .cls-2 {
        fill: #999;
      }
    </style>
  </defs>
  <g id="Layer_1-2" data-name="Layer 1">
    <g>
      <path class="cls-1" d="M15.3,20.32c-.44.44-.97.66-1.57.66H4.81c-.6,0-1.13-.22-1.57-.66l-2.58-2.58c-.44-.44-.66-.97-.66-1.57V4.82c0-.6.22-1.13.66-1.57L3.23.66c.44-.44.97-.66,1.57-.66h8.92c.6,0,1.13.22,1.57.66l2.74,2.74-2.55,2.51-2.14-2.14c-.13-.13-.25-.19-.44-.19h-7.28c-.19,0-.31.06-.44.19l-1.23,1.23c-.13.13-.19.28-.19.44v10.1c0,.16.06.31.19.44l1.23,1.23c.13.13.25.19.44.19h7.28c.19,0,.31-.06.44-.19l2.14-2.14,2.55,2.51-2.74,2.74h0Z"/>
      <path class="cls-1" d="M94.58,20.98V0h3.78v17.4h11.85v3.59h-15.63Z"/>
      <path class="cls-1" d="M50.81,20.98V0h3.78v17.4h11.85v3.59h-15.63Z"/>
      <path class="cls-1" d="M138.15,20.98v-3.33h6.13V3.33h-6.13V0h16.03v3.33h-6.13v14.31h6.13v3.33h-16.03Z"/>
      <path class="cls-1" d="M72.37,20.98v-3.33h6.13V3.33h-6.13V0h16.03v3.33h-6.13v14.31h6.13v3.33h-16.03Z"/>
      <path class="cls-1" d="M116.13,20.98h15.84v-3.39h-12.26v-5.06h11.41v-3.39h-11.41V3.39h12.26V0h-15.84v20.98h0Z"/>
      <path class="cls-1" d="M41.77,20.98h3.56L37.96,1.07c-.24-.64-.86-1.07-1.54-1.07h-4.47c-.68,0-1.3.43-1.54,1.07l-7.38,19.91h3.56l1.14-3.09,6.44-2.42,6.34,2.15,1.24,3.36h0ZM29.27,13.8l3.64-9.84c.06-.17.23-.29.41-.29h1.73c.18,0,.35.11.41.29l3.59,9.68-4.92-1.66-4.87,1.83h0Z"/>
    </g>
    <g>
      <path class="cls-2" d="M168.88,4.96l1.63-4.45h.48l-1.63,4.45h-.48Z"/>
      <path class="cls-2" d="M179.3,4.96c-.31,0-.58-.03-.8-.09-.22-.06-.4-.14-.52-.23-.12-.09-.22-.22-.3-.36s-.12-.29-.14-.43c-.02-.14-.03-.3-.03-.49v-1.24c0-.19,0-.35.03-.49s.07-.28.14-.43.17-.27.3-.36.3-.17.52-.23c.22-.06.49-.09.8-.09h1.44v1.42h-.55v-.93h-.85c-.22,0-.4.02-.56.06s-.28.09-.37.15c-.09.06-.16.14-.21.24-.05.1-.09.2-.1.3-.02.1-.02.22-.02.36v1.24c0,.14,0,.26.02.36s.05.2.1.3c.05.1.12.18.21.24.09.06.21.11.37.15.15.04.34.06.56.06h1.4v.49h-1.44Z"/>
      <path class="cls-2" d="M183.58,5c-.3,0-.55-.04-.76-.11-.21-.08-.36-.19-.48-.33-.11-.15-.2-.32-.24-.51s-.07-.42-.07-.68v-1.27c0-.26.02-.49.07-.68.05-.19.13-.36.24-.5.11-.15.27-.26.48-.33.21-.07.46-.11.76-.11h.29c.3,0,.55.04.76.11.21.07.36.18.48.33s.2.32.24.5c.05.19.07.42.07.68v1.27c0,.26-.02.49-.07.68-.05.19-.13.36-.24.51s-.27.26-.48.33c-.21.08-.46.11-.76.11h-.29ZM183.58,4.5h.29c.35,0,.6-.09.75-.25.15-.17.22-.45.22-.86v-1.32c0-.4-.08-.69-.22-.86s-.4-.25-.75-.25h-.29c-.35,0-.6.09-.75.25-.15.17-.22.45-.22.86v1.32c0,.4.08.68.23.85s.4.26.75.26Z"/>
      <path class="cls-2" d="M186.7,4.96V.51h1.57c.26,0,.49.03.69.08s.36.12.48.21c.12.09.22.19.3.32s.13.26.16.39c.03.13.04.28.04.44v.15c0,.2-.02.39-.07.55-.05.16-.13.31-.25.45-.12.14-.29.25-.51.33s-.5.12-.82.12h-1v1.42h-.57,0ZM187.28,3.05h1c.4,0,.68-.08.84-.24.16-.16.24-.4.24-.71v-.15c0-.31-.08-.55-.24-.7-.16-.16-.44-.24-.84-.24h-1v2.05h0Z"/>
      <path class="cls-2" d="M192.63,4.96v-1.45l-1.56-2.99h.61l1.26,2.41,1.23-2.41h.58l-1.55,2.99v1.45h-.58Z"/>
      <path class="cls-2" d="M199.32,4.96h-.66l-1.1-1.77h-1.1v1.77h-.57V.51h1.83c.22,0,.42.02.58.07s.3.11.4.18c.1.08.19.17.25.28s.11.23.13.34.04.24.04.39v.15c0,.69-.31,1.1-.92,1.22l1.12,1.81h0ZM196.47,1v1.7h1.26c.3,0,.51-.06.64-.19.12-.12.19-.32.19-.58v-.15c0-.27-.06-.47-.19-.59-.12-.12-.34-.19-.64-.19h-1.26Z"/>
      <path class="cls-2" d="M200.53,4.96v-.49h1.3V1h-1.3v-.49h3.16v.49h-1.29v3.46h1.29v.49h-3.16Z"/>
      <path class="cls-2" d="M206.52,5c-.29,0-.54-.04-.74-.11-.2-.08-.36-.19-.47-.33s-.19-.32-.23-.51-.07-.42-.07-.68v-1.25c0-.13,0-.25.01-.35s.03-.21.06-.33c.03-.11.07-.22.12-.3.05-.09.12-.17.22-.25.09-.08.2-.15.32-.2s.28-.09.46-.12c.18-.03.39-.05.61-.05h1.35v.49h-1.31c-.27,0-.49.03-.67.08s-.31.13-.39.24-.14.22-.17.34c-.03.12-.04.27-.04.45v1.28c0,.4.08.68.23.85s.4.26.75.26h.29c.35,0,.6-.09.75-.25.15-.17.22-.45.22-.86v-.43h-.92v-.49h1.49v2.48h-.45l-.06-.4c-.24.3-.6.45-1.11.45h-.27Z"/>
      <path class="cls-2" d="M209.61,4.96V.51h.57v1.96h2.23V.51h.57v4.45h-.57v-1.99h-2.23v1.99h-.57Z"/>
      <path class="cls-2" d="M215.62,4.96V1h-1.49v-.49h3.54v.49h-1.48v3.96h-.57Z"/>
      <path class="cls-2" d="M226.48,3.81c-.38.38-.84.57-1.38.57s-1-.19-1.38-.57c-.38-.38-.57-.84-.57-1.38s.19-1,.57-1.38.84-.57,1.38-.57,1,.19,1.38.57.57.84.57,1.38-.19,1-.57,1.38ZM223.96,3.56c.32.31.69.47,1.13.47s.82-.16,1.13-.47c.32-.31.47-.69.47-1.13s-.16-.82-.47-1.13-.69-.47-1.13-.47-.82.16-1.13.47c-.32.32-.47.69-.47,1.13s.16.82.47,1.13ZM225.03,3.48c-.2,0-.37-.02-.51-.07s-.23-.11-.3-.2c-.06-.09-.11-.18-.13-.27-.02-.1-.04-.21-.04-.35v-.35c0-.14.01-.25.04-.35.02-.1.07-.19.13-.27s.16-.15.3-.19.3-.06.51-.06h.82v.79h-.39v-.46h-.38c-.24,0-.4.04-.48.13s-.12.22-.12.41v.35c0,.19.04.32.12.41s.24.13.48.13h.77v.34h-.82Z"/>
      <path class="cls-2" d="M232.67,4.96v-1.05c0-.17.01-.31.05-.42.03-.11.1-.22.19-.32.1-.1.23-.19.4-.27s.39-.17.67-.26l.62-.19c.27-.09.46-.19.56-.31s.15-.27.15-.46c0-.22-.06-.39-.19-.51-.12-.11-.35-.17-.68-.17h-1.55v-.49h1.52c.29,0,.53.03.73.1.2.06.35.15.45.26.1.11.18.23.22.37.04.13.07.28.07.44,0,.34-.08.61-.25.81s-.48.36-.95.5l-.64.19c-.31.1-.52.2-.62.3s-.16.25-.16.45v.54h2.66v.49h-3.24Z"/>
      <path class="cls-2" d="M239.03.47c.3,0,.55.04.76.11.21.07.36.18.48.33s.2.32.24.5c.05.19.07.42.07.68v1.27c0,.26-.02.49-.07.68-.05.19-.13.36-.24.51s-.27.26-.48.33c-.21.08-.46.11-.76.11h-.29c-.3,0-.55-.04-.76-.11-.21-.08-.36-.19-.48-.33s-.2-.32-.24-.51-.07-.42-.07-.68v-1.27c0-.26.02-.49.07-.68.05-.19.13-.36.24-.5s.27-.26.48-.33c.21-.07.46-.11.76-.11h.29ZM237.77,2.07v1.41l2.15-2.04c-.06-.17-.17-.29-.31-.37s-.33-.11-.58-.11h-.29c-.35,0-.6.09-.75.25-.15.17-.22.45-.22.86h0ZM240,3.39v-1.41l-2.13,2.02c.14.33.43.5.87.5h.29c.35,0,.6-.09.75-.25.15-.17.22-.45.22-.86h0Z"/>
      <path class="cls-2" d="M241.87,4.96v-1.05c0-.17.01-.31.05-.42.03-.11.1-.22.19-.32.1-.1.23-.19.4-.27s.39-.17.67-.26l.62-.19c.27-.09.46-.19.56-.31s.15-.27.15-.46c0-.22-.06-.39-.19-.51-.12-.11-.35-.17-.68-.17h-1.55v-.49h1.52c.29,0,.53.03.73.1.2.06.35.15.45.26.1.11.18.23.22.37.04.13.07.28.07.44,0,.34-.08.61-.25.81s-.48.36-.95.5l-.64.19c-.31.1-.52.2-.62.3s-.16.25-.16.45v.54h2.66v.49h-3.24Z"/>
      <path class="cls-2" d="M246.63,5v-.55l1.71-.2c.3-.03.5-.11.61-.24.11-.13.16-.3.16-.52s-.06-.39-.19-.51-.35-.17-.68-.17h-1.54V.51h2.78v.49h-2.2v1.33h.93c.99,0,1.48.38,1.48,1.15,0,.18-.02.33-.06.47s-.11.26-.21.38c-.1.12-.23.22-.4.29s-.38.13-.62.15l-1.77.22h0Z"/>
    </g>
    <g>
      <path class="cls-2" d="M170.93,11.71l.07.03.55.55.03.07v.73l-.03.07-.48.48.48.48.03.07v.73l-.03.07-.55.55-.07.03h-1.65l-.09-.09v-3.65l.09-.09h1.65ZM169.38,13.53h1.51l.49-.49v-.65l-.49-.5h-1.51v1.65ZM169.38,15.36h1.51l.49-.5v-.65l-.49-.49h-1.51v1.65Z"/>
      <path class="cls-2" d="M174.22,11.71l.07.03.55.55.03.07v3.2h-.19v-1.83h-2v1.83h-.19v-3.2l.03-.07.55-.55.07-.03h1.1ZM172.67,12.39v1.15h2v-1.15l-.49-.5h-1.02l-.49.5h0Z"/>
      <path class="cls-2" d="M177.51,11.71l.07.03.55.55-.13.13-.52-.52h-1.02l-.49.5v.65l.49.49h1.06l.07.03.55.55.03.07v.73l-.03.07-.55.55-.07.03h-1.1l-.07-.03-.55-.55.13-.13.52.52h1.02l.49-.5v-.65l-.49-.49h-1.06l-.07-.03-.55-.55-.03-.07v-.73l.03-.07.55-.55.07-.03h1.1Z"/>
      <path class="cls-2" d="M181.39,11.71v.18h-2.1v1.65h1.74v.19h-1.74v1.65h2.1v.18h-2.19l-.09-.09v-3.65l.09-.09h2.19Z"/>
      <path class="cls-2" d="M187.38,11.71l.07.03.55.55.03.07v2.56l-.03.07-.55.55-.07.03h-1.65l-.09-.09v-3.65l.09-.09h1.65ZM185.83,15.36h1.51l.49-.5v-2.48l-.49-.5h-1.51v3.47h0Z"/>
      <path class="cls-2" d="M191.26,11.71v.18h-2.1v1.65h1.74v.19h-1.74v1.65h2.1v.18h-2.19l-.09-.09v-3.65l.09-.09h2.19Z"/>
      <path class="cls-2" d="M193.95,11.71l.07.03.55.55-.13.13-.52-.52h-1.02l-.49.5v.65l.49.49h1.06l.07.03.55.55.03.07v.73l-.03.07-.55.55-.07.03h-1.1l-.07-.03-.55-.55.13-.13.52.52h1.02l.49-.5v-.65l-.49-.49h-1.06l-.07-.03-.55-.55-.03-.07v-.73l.03-.07.55-.55.07-.03h1.1Z"/>
      <path class="cls-2" d="M197.42,11.71v.18h-.64v3.47h.64v.18h-1.46v-.18h.64v-3.47h-.64v-.18h1.46Z"/>
      <path class="cls-2" d="M200.53,11.71l.07.03.55.55-.13.13-.52-.52h-1.02l-.49.5v2.48l.49.5h1.02l.49-.5v-1.15h-.82v-.19h.91l.09.09v1.28l-.03.07-.55.55-.07.03h-1.1l-.07-.03-.55-.55-.03-.07v-2.56l.03-.07.55-.55.07-.03h1.1,0Z"/>
      <path class="cls-2" d="M204.3,15.16v-3.46h.19v3.79l-.17.05-2.08-3.46v3.46h-.19v-3.79l.17-.05,2.08,3.46h0Z"/>
      <path class="cls-2" d="M208.89,11.71v3.66h2.1v.18h-2.19l-.09-.09v-3.74h.18Z"/>
      <path class="cls-2" d="M212.18,11.71v3.66h2.1v.18h-2.19l-.09-.09v-3.74h.18Z"/>
      <path class="cls-2" d="M216.99,11.71l.07.03.55.55-.13.13-.52-.52h-1.02l-.49.5v2.48l.49.5h1.02l.52-.52.13.13-.55.55-.07.03h-1.1l-.06-.03-.55-.55-.03-.07v-2.56l.03-.07.55-.55.06-.03h1.1Z"/>
      <path class="cls-2" d="M219.44,14.81c.1,0,.19.04.26.11s.11.16.11.26-.04.18-.11.25-.16.11-.26.11-.18-.04-.26-.11-.11-.16-.11-.25.04-.19.11-.26.16-.11.26-.11ZM219.44,14.99c-.05,0-.09.02-.13.05s-.05.08-.05.13.02.09.05.13.08.05.13.05.09-.02.13-.05.05-.08.05-.13-.02-.1-.05-.13-.08-.05-.13-.05Z"/>
      <path class="cls-2" d="M170.93,17.33l.07.03.55.55.03.07v3.2h-.19v-1.83h-2v1.83h-.19v-3.2l.03-.07.55-.55.07-.03h1.1ZM169.38,18.01v1.15h2v-1.15l-.49-.5h-1.02l-.49.5h0Z"/>
      <path class="cls-2" d="M172.72,17.33v3.66h2.1v.18h-2.19l-.09-.09v-3.74h.18Z"/>
      <path class="cls-2" d="M176,17.33v3.66h2.1v.18h-2.19l-.09-.09v-3.74h.18Z"/>
      <path class="cls-2" d="M184.08,17.33l.07.03.55.55.03.07v.73l-.03.07-.55.55-.07.03h-.55l1.21,1.72-.15.11-1.28-1.83h-.77v1.83h-.19v-3.74l.09-.09h1.65,0ZM182.53,19.15h1.51l.49-.49v-.65l-.49-.5h-1.51v1.65Z"/>
      <path class="cls-2" d="M187.56,17.33v.18h-.64v3.47h.64v.18h-1.46v-.18h.64v-3.47h-.64v-.18h1.46Z"/>
      <path class="cls-2" d="M190.66,17.33l.07.03.55.55-.13.13-.52-.52h-1.02l-.49.5v2.48l.49.5h1.02l.49-.5v-1.15h-.82v-.19h.91l.09.09v1.28l-.03.07-.55.55-.07.03h-1.1l-.07-.03-.55-.55-.03-.07v-2.56l.03-.07.55-.55.07-.03h1.1Z"/>
      <path class="cls-2" d="M192.4,17.33v1.83h2v-1.83h.19v3.84h-.19v-1.83h-2v1.83h-.19v-3.84h.19Z"/>
      <path class="cls-2" d="M197.79,17.33v.18h-1v3.66h-.19v-3.66h-1v-.18h2.19,0Z"/>
      <path class="cls-2" d="M200.53,17.33l.07.03.55.55-.13.13-.52-.52h-1.02l-.49.5v.65l.49.49h1.06l.07.03.55.55.03.07v.73l-.03.07-.55.55-.07.03h-1.1l-.07-.03-.55-.55.13-.13.52.52h1.02l.49-.5v-.65l-.49-.49h-1.06l-.07-.03-.55-.55-.03-.07v-.73l.03-.07.55-.55.07-.03h1.1,0Z"/>
      <path class="cls-2" d="M207.1,17.33l.07.03.55.55.03.07v.73l-.03.07-.55.55-.07.03h-.55l1.21,1.72-.15.11-1.28-1.83h-.77v1.83h-.19v-3.74l.09-.09h1.65,0ZM205.55,19.15h1.51l.49-.49v-.65l-.49-.5h-1.51v1.65Z"/>
      <path class="cls-2" d="M210.99,17.33v.18h-2.1v1.65h1.74v.19h-1.74v1.65h2.1v.18h-2.19l-.09-.09v-3.65l.09-.09h2.19Z"/>
      <path class="cls-2" d="M213.69,17.33l.07.03.55.55-.13.13-.52-.52h-1.02l-.49.5v.65l.49.49h1.06l.07.03.55.55.03.07v.73l-.03.07-.55.55-.07.03h-1.1l-.07-.03-.55-.55.13-.13.52.52h1.02l.49-.5v-.65l-.49-.49h-1.06l-.07-.03-.55-.55-.03-.07v-.73l.03-.07.55-.55.07-.03h1.1Z"/>
      <path class="cls-2" d="M217.57,17.33v.18h-2.1v1.65h1.74v.19h-1.74v1.65h2.1v.18h-2.19l-.09-.09v-3.65l.09-.09h2.19Z"/>
      <path class="cls-2" d="M220.26,17.33l.07.03.55.55.03.07v.73l-.03.07-.55.55-.07.03h-.55l1.21,1.72-.15.11-1.28-1.83h-.77v1.83h-.19v-3.74l.09-.09h1.65,0ZM218.71,19.15h1.51l.49-.49v-.65l-.49-.5h-1.51v1.65Z"/>
      <path class="cls-2" d="M223,20.82l1.05-3.49.18.05-1.13,3.78h-.18l-1.13-3.78.18-.05,1.05,3.49Z"/>
      <path class="cls-2" d="M227.43,17.33v.18h-2.1v1.65h1.74v.19h-1.74v1.65h2.1v.18h-2.19l-.09-.09v-3.65l.09-.09h2.19Z"/>
      <path class="cls-2" d="M230.13,17.33l.07.03.55.55.03.07v2.56l-.03.07-.55.55-.07.03h-1.65l-.09-.09v-3.65l.09-.09h1.65ZM228.58,20.98h1.51l.49-.5v-2.48l-.49-.5h-1.51v3.47h0Z"/>
    </g>
  </g>
</svg>