<?xml version="1.0" encoding="UTF-8"?>
<svg id="Layer_2" data-name="Layer 2" xmlns="http://www.w3.org/2000/svg" viewBox="0 0 149.99 65.12">
  <defs>
    <style>
      .cls-1 {
        fill: #0ea0db;
      }

      .cls-2 {
        fill: #333;
        stroke: #333;
        stroke-miterlimit: 10;
        stroke-width: .24px;
      }

      .cls-3 {
        fill: #f2f2f2;
      }
    </style>
  </defs>
  <g id="Layer_1-2" data-name="Layer 1">
    <g>
      <rect class="cls-1" x=".12" y=".12" width="149.75" height="65" rx="3.2" ry="3.2"/>
      <path class="cls-2" d="M149.87,34.12H.12V3.32C.12,1.55,1.55.12,3.32.12h143.36c1.76,0,3.2,1.43,3.2,3.2v30.8Z"/>
      <g>
        <path class="cls-3" d="M14.9,23.16h-2.38v-11.37h2.38v.64h-1.72v10.07h1.72v.66Z"/>
        <path class="cls-3" d="M20.22,17.84v3.16h-1.37v-7.6h5.1v1.3h-3.73v1.85h3.73v1.3h-3.73Z"/>
        <path class="cls-3" d="M25.87,21v-7.6h1.37v6.3h3.73v1.3h-5.1Z"/>
        <path class="cls-3" d="M38.38,19.82l-.93.93c-.16.16-.35.24-.57.24h-2.98c-.22,0-.41-.08-.57-.24l-.93-.93c-.16-.16-.24-.35-.24-.57v-4.11c0-.22.08-.41.24-.57l.93-.93c.16-.16.35-.24.57-.24h2.98c.22,0,.41.08.57.24l.93.93c.16.16.24.35.24.57v4.11c0,.22-.08.41-.24.57ZM37.26,15.37c0-.06-.02-.11-.07-.16l-.44-.45s-.09-.07-.16-.07h-2.38c-.07,0-.11.02-.16.07l-.44.45s-.07.1-.07.16v3.66c0,.06.02.11.07.16l.44.44s.09.07.16.07h2.38c.07,0,.11-.02.16-.07l.44-.44s.07-.1.07-.16v-3.66Z"/>
        <path class="cls-3" d="M47.76,21h-1.79l-1.23-6.01-1.22,6.01h-1.79l-1.66-7.6h1.38l1.2,6.12,1.22-6.12h1.82l1.2,6.12,1.22-6.12h1.34l-1.69,7.6Z"/>
        <path class="cls-3" d="M52.57,17.84v3.16h-1.37v-7.6h5.1v1.3h-3.73v1.85h3.73v1.3h-3.73Z"/>
        <path class="cls-3" d="M64.12,19.82l-.93.93c-.16.16-.35.24-.57.24h-2.98c-.22,0-.41-.08-.57-.24l-.93-.93c-.16-.16-.24-.35-.24-.57v-4.11c0-.22.08-.41.24-.57l.93-.93c.16-.16.35-.24.57-.24h2.98c.22,0,.41.08.57.24l.93.93c.16.16.24.35.24.57v4.11c0,.22-.08.41-.24.57ZM63,15.37c0-.06-.02-.11-.07-.16l-.44-.45s-.09-.07-.16-.07h-2.38c-.07,0-.11.02-.16.07l-.44.45s-.07.1-.07.16v3.66c0,.06.02.11.07.16l.44.44s.09.07.16.07h2.38c.07,0,.11-.02.16-.07l.44-.44s.07-.1.07-.16v-3.66Z"/>
        <path class="cls-3" d="M71.24,21l-2.25-2.9c-.04-.07-.11-.1-.19-.1h-.83v3h-1.37v-7.6h4.24c.22,0,.4.08.55.23l.75.75c.16.16.24.34.24.57v1.5c0,.23-.08.41-.24.57l-.75.75c-.15.15-.33.23-.55.23h-.27l2.35,3h-1.67ZM71.01,15.17c0-.07-.02-.11-.07-.16l-.25-.25s-.09-.07-.16-.07h-2.56v2.01h2.56c.07,0,.11-.02.16-.07l.25-.25s.07-.09.07-.16v-1.05Z"/>
        <path class="cls-3" d="M81.3,21v-6.04l-1.86,6.04h-1.41l-1.86-6.04v6.04h-1.33v-7.6h2.1l1.8,5.89,1.8-5.89h2.1v7.6h-1.33Z"/>
        <path class="cls-3" d="M85.67,21h-.96v-.96h.96v.96Z"/>
        <path class="cls-3" d="M93.22,19.85l-.9.91c-.16.16-.35.24-.57.24h-3.73v-7.6h3.7c.22,0,.41.08.56.23l.94.92c.16.16.24.35.24.57v4.17c0,.22-.08.41-.23.56ZM92.75,15.15c0-.06-.02-.11-.07-.16l-.84-.82s-.1-.07-.16-.07h-2.93v6.2h2.94c.06,0,.11-.02.16-.07l.83-.86s.07-.1.07-.16v-4.07Z"/>
        <path class="cls-3" d="M100.86,21h-4.72v-7.6h4.72v.7h-4.01v2.76h4.01v.7h-4.01v2.75h4.01v.7Z"/>
        <path class="cls-3" d="M108.93,19.79l-.95.97c-.16.16-.35.24-.57.24h-2.65c-.22,0-.41-.08-.57-.24l-1.17-1.17.5-.51,1.11,1.15s.1.07.17.07h2.54c.06,0,.11-.02.16-.07l.87-.9s.07-.1.07-.16v-1.11c0-.06-.02-.11-.06-.15s-.09-.07-.15-.07l-4.5-.56c-.2-.02-.37-.11-.5-.26-.14-.15-.21-.33-.21-.54v-1.33c0-.22.08-.41.25-.58l.98-.94c.17-.15.35-.23.55-.23h2.6c.22,0,.41.08.56.22l1.17,1.17-.49.49-1.15-1.12s-.1-.07-.16-.07h-2.49c-.06,0-.11.02-.16.07l-.88.86s-.07.1-.07.16v1.15c0,.06.02.11.06.15.04.04.09.07.15.07l4.5.56c.2.02.36.11.5.26.14.15.21.33.21.54v1.31c0,.21-.08.39-.23.56Z"/>
        <path class="cls-3" d="M114.57,21h-3.64v-.7h1.46v-6.2h-1.46v-.7h3.64v.7h-1.45v6.2h1.45v.7Z"/>
        <path class="cls-3" d="M122.17,21l-.26-1.21-.99.98c-.17.15-.35.23-.56.23h-2.19c-.22,0-.41-.08-.57-.24l-.91-.91c-.16-.16-.24-.35-.24-.57v-4.13c0-.22.08-.41.24-.57l.94-.93c.16-.16.35-.24.57-.24h2.65c.21,0,.39.08.56.22l1.19,1.14-.48.52-1.14-1.13s-.1-.07-.16-.07h-2.59c-.07,0-.13.02-.17.07l-.82.87s-.07.1-.07.16v4.01c0,.06.02.11.07.16l.86.87s.1.07.16.07h2.09c.06,0,.11-.02.16-.07l1.35-1.35s.07-.1.07-.16v-1.18h-2.26v-.7h2.96v2.74s0,.06.03.15.05.23.09.43c.04.19.1.47.18.84h-.73Z"/>
        <path class="cls-3" d="M130.86,21h-1.15l-3.58-6.92v6.92h-.71v-7.61h1.16l3.57,6.93v-6.93h.71v7.61Z"/>
        <path class="cls-3" d="M137.48,23.16h-2.38v-.66h1.72v-10.07h-1.72v-.64h2.38v11.37Z"/>
      </g>
      <g>
        <g id="BASE">
          <path class="cls-3" d="M68.08,49.04c0,3.82,3.1,6.92,6.92,6.92s6.92-3.1,6.92-6.92-3.1-6.92-6.92-6.92-6.92,3.1-6.92,6.92ZM80.94,49.04c0,3.28-2.66,5.95-5.94,5.95s-5.95-2.67-5.95-5.95,2.67-5.94,5.95-5.94,5.94,2.66,5.94,5.94Z"/>
        </g>
        <path class="cls-3" d="M78.7,49.88l-1.1,1.09-2.59-2.6-2.6,2.6-1.1-1.09,3.7-3.7,3.7,3.7Z"/>
      </g>
    </g>
  </g>
</svg>