<?xml version="1.0" encoding="UTF-8"?>
<svg id="Layer_2" data-name="Layer 2" xmlns="http://www.w3.org/2000/svg" viewBox="0 0 25.3 46.89">
  <defs>
    <style>
      .cls-1 {
        fill: #0ea0db;
      }

      .cls-2 {
        fill: #bcbec0;
      }
    </style>
  </defs>
  <g id="BASE">
    <g>
      <g>
        <polygon class="cls-1" points="18 39.24 9.44 39.24 13.39 41.23 12.89 42.16 7.4 39.28 7.4 38.33 12.89 35.45 13.39 36.38 9.46 38.37 18 38.37 18 39.24"/>
        <path class="cls-1" d="M12.78,46.89c4.47,0,8.09-3.62,8.09-8.09s-3.62-8.09-8.09-8.09-8.09,3.62-8.09,8.09,3.63,8.09,8.09,8.09ZM12.78,31.85c3.84,0,6.96,3.11,6.96,6.95s-3.12,6.96-6.96,6.96-6.95-3.12-6.95-6.96,3.11-6.95,6.95-6.95Z"/>
      </g>
      <g>
        <path class="cls-2" d="M4,0l.29.12,1.2,1.2.11.28v1.4l-.11.29-.92.91.92.91.11.29v1.4l-.11.28-1.2,1.2-.29.12H.4l-.4-.4V.4l.4-.4h3.6ZM.79,3.8h3.04l.97-.97v-1.07l-.97-.96H.79v3ZM.79,7.6h3.04l.97-.96v-1.07l-.97-.97H.79v3Z"/>
        <path class="cls-2" d="M10.6,0l.29.12,1.2,1.2.11.28v6.8h-.79v-3.8h-4.01v3.8h-.79V1.6l.11-.28L7.91.12l.29-.12h2.4ZM7.39,1.76v2.04h4.01V1.76l-.97-.96h-2.06l-.97.96Z"/>
        <path class="cls-2" d="M17.25,0l.28.12,1.2,1.2-.56.56-1.08-1.08h-2.06l-.97.96v4.87l.97.96h2.06l1.08-1.08.56.56-1.2,1.2-.28.12h-2.4l-.29-.12-1.2-1.2-.11-.28V1.6l.11-.28L14.57.12l.29-.12h2.4Z"/>
        <path class="cls-2" d="M20.7,0v4.03L24.73,0l.56.56-3.64,3.64,3.64,3.64-.56.56-3.64-3.64-.4.41v3.23h-.8V0h.8Z"/>
        <path class="cls-2" d="M.79,14.4v3.8h4.01v-3.8h.79v8.4h-.79v-3.8H.79v3.8h-.79v-8.4h.79Z"/>
        <path class="cls-2" d="M10.6,14.4l.29.12,1.2,1.2.11.28v5.21l-.11.28-1.2,1.2-.29.12h-2.4l-.29-.12-1.2-1.2-.11-.28v-5.21l.11-.28,1.2-1.2.29-.12h2.4ZM7.39,16.17v4.87l.97.96h2.06l.97-.96v-4.87l-.97-.96h-2.06l-.97.96Z"/>
        <path class="cls-2" d="M16,21.3l2.06-6.9.79.12v8.28h-.8v-5.56l-1.67,5.56h-.77l-1.67-5.56v5.56h-.8v-8.28l.79-.12,2.06,6.9Z"/>
        <path class="cls-2" d="M25.2,14.4v.8h-4.4v3h3.6v.79h-3.6v3h4.4v.8h-4.8l-.41-.4v-7.61l.41-.4h4.8Z"/>
      </g>
    </g>
  </g>
</svg>