<?xml version="1.0" encoding="UTF-8"?>
<svg id="Layer_2" data-name="Layer 2" xmlns="http://www.w3.org/2000/svg" viewBox="0 0 20.98 26.81">
  <defs>
    <style>
      .cls-1 {
        fill: #414042;
      }
    </style>
  </defs>
  <g id="Layer_1-2" data-name="Layer 1">
    <g>
      <path class="cls-1" d="M14.03,6.97l-.14.73c-.04.18.06.36.23.45,2.79,1.4,4.66,4.37,4.45,7.76-.26,4.14-3.69,7.46-7.84,7.58-4.58.13-8.34-3.54-8.34-8.09,0-3.17,1.82-5.91,4.47-7.24.17-.08.26-.26.23-.45l-.14-.73c-.05-.26-.33-.4-.57-.3C2.39,8.37-.33,12.47.03,17.16c.4,5.13,4.57,9.27,9.71,9.62,6.13.43,11.24-4.42,11.24-10.46,0-4.33-2.63-8.06-6.38-9.65-.24-.1-.52.04-.57.3Z"/>
      <path class="cls-1" d="M8.49,6.51l1.5,11.51c.02.15.15.26.3.26h.41c.15,0,.28-.11.3-.26l1.5-11.51c.05-.41.02-.83-.1-1.23L10.86.14C10.83.06,10.75,0,10.66,0h-.34c-.09,0-.17.06-.19.14l-1.54,5.14c-.12.4-.15.82-.1,1.23Z"/>
    </g>
  </g>
</svg>