<?xml version="1.0" encoding="UTF-8"?>
<svg id="Layer_2" data-name="Layer 2" xmlns="http://www.w3.org/2000/svg" viewBox="0 0 44.8 46.89">
  <defs>
    <style>
      .cls-1 {
        fill: #08ad4b;
      }

      .cls-2 {
        fill: #bcbec0;
      }
    </style>
  </defs>
  <g id="BASE">
    <g>
      <g>
        <polygon class="cls-1" points="17.3 38.36 25.86 38.36 21.91 36.37 22.41 35.44 27.9 38.32 27.9 39.27 22.41 42.15 21.91 41.22 25.84 39.23 17.3 39.23 17.3 38.36"/>
        <path class="cls-1" d="M22.52,30.71c-4.47,0-8.09,3.62-8.09,8.09s3.62,8.09,8.09,8.09,8.09-3.62,8.09-8.09-3.63-8.09-8.09-8.09ZM22.52,45.75c-3.84,0-6.96-3.11-6.96-6.95s3.12-6.96,6.96-6.96,6.95,3.12,6.95,6.96-3.11,6.95-6.95,6.95Z"/>
      </g>
      <g>
        <path class="cls-2" d="M14.69,6.76V0h.8v8.2l-.74.2L10.7,1.64v6.76h-.8V.2l.74-.2,4.04,6.76Z"/>
        <path class="cls-2" d="M21.9,0v.8h-4.4v3h3.6v.79h-3.6v3h4.4v.8h-4.8l-.41-.4V.4l.41-.4h4.8Z"/>
        <path class="cls-2" d="M25.9,3.42l2.05-3.42.68.41-2.27,3.79,2.27,3.79-.68.41-2.05-3.42-2.05,3.42-.68-.41,2.27-3.79-2.27-3.79.68-.41,2.05,3.42Z"/>
        <path class="cls-2" d="M34.9,0v.8h-2v7.6h-.79V.8h-2v-.8h4.8Z"/>
        <path class="cls-2" d="M4,14.4l.29.12,1.2,1.2.11.28v1.4l-.11.29-1.2,1.2-.29.11H.79v3.8h-.79v-8l.4-.4h3.6ZM.79,18.21h3.04l.97-.97v-1.07l-.97-.96H.79v3Z"/>
        <path class="cls-2" d="M10.6,14.4l.29.12,1.2,1.2.11.28v1.4l-.11.29-1.2,1.2-.29.11h-.83l2.34,3.35-.66.46-2.66-3.8h-1.39v3.8h-.79v-8l.4-.4h3.6ZM7.39,18.21h3.04l.97-.97v-1.07l-.97-.96h-3.04v3Z"/>
        <path class="cls-2" d="M17.2,14.4l.29.12,1.2,1.2.11.28v5.21l-.11.28-1.2,1.2-.29.12h-2.4l-.29-.12-1.2-1.2-.11-.28v-5.21l.11-.28,1.2-1.2.29-.12h2.4ZM13.99,16.17v4.87l.97.96h2.06l.97-.96v-4.87l-.97-.96h-2.06l-.97.96Z"/>
        <path class="cls-2" d="M25.14,14.4v.8h-1.2v6l-.12.28-1.2,1.2-.29.12h-.79l-.29-.12-1.2-1.2.56-.56,1.09,1.08h.47l.96-.96v-5.83h-1.2v-.8h3.2Z"/>
        <path class="cls-2" d="M31.8,14.4v.8h-4.4v3h3.6v.79h-3.6v3h4.4v.8h-4.8l-.41-.4v-7.61l.41-.4h4.8Z"/>
        <path class="cls-2" d="M37.05,14.4l.28.12,1.2,1.2-.56.56-1.08-1.08h-2.06l-.97.96v4.87l.97.96h2.06l1.08-1.08.56.56-1.2,1.2-.28.12h-2.4l-.29-.12-1.2-1.2-.11-.28v-5.21l.11-.28,1.2-1.2.29-.12h2.4Z"/>
        <path class="cls-2" d="M44.8,14.4v.8h-2v7.6h-.79v-7.6h-2v-.8h4.8Z"/>
      </g>
    </g>
  </g>
</svg>