<?xml version="1.0" encoding="UTF-8"?>
<svg id="Layer_2" data-name="Layer 2" xmlns="http://www.w3.org/2000/svg" viewBox="0 0 51.79 46.89">
  <defs>
    <style>
      .cls-1 {
        fill: #ca3527;
      }

      .cls-2 {
        fill: #bcbec0;
      }
    </style>
  </defs>
  <g id="BASE">
    <g>
      <g>
        <polygon class="cls-1" points="31.07 39.24 22.51 39.24 26.46 41.23 25.96 42.16 20.47 39.28 20.47 38.33 25.96 35.45 26.46 36.38 22.53 38.37 31.07 38.37 31.07 39.24"/>
        <path class="cls-1" d="M25.85,46.89c4.47,0,8.09-3.62,8.09-8.09s-3.62-8.09-8.09-8.09-8.09,3.62-8.09,8.09,3.63,8.09,8.09,8.09ZM25.85,31.85c3.84,0,6.96,3.11,6.96,6.95s-3.12,6.96-6.96,6.96-6.95-3.12-6.95-6.96,3.11-6.95,6.95-6.95Z"/>
      </g>
      <g>
        <path class="cls-2" d="M4,0l.29.12,1.2,1.2.11.28v1.4l-.11.29-1.2,1.2-.29.11H.79v3.8h-.79V.4l.4-.4h3.6ZM.79,3.8h3.04l.97-.97v-1.07l-.97-.96H.79v3Z"/>
        <path class="cls-2" d="M10.6,0l.29.12,1.2,1.2.11.28v1.4l-.11.29-1.2,1.2-.29.11h-.83l2.34,3.35-.66.46-2.66-3.8h-1.39v3.8h-.79V.4l.4-.4h3.6ZM7.39,3.8h3.04l.97-.97v-1.07l-.97-.96h-3.04v3Z"/>
        <path class="cls-2" d="M18.6,0v.8h-4.4v3h3.6v.79h-3.6v3h4.4v.8h-4.8l-.41-.4V.4l.41-.4h4.8Z"/>
        <path class="cls-2" d="M22.6,6.9l2.06-6.9.77.23-2.45,8.17h-.77L19.76.23l.77-.23,2.06,6.9Z"/>
        <path class="cls-2" d="M30.79,0v.8h-1.2v6.79h1.2v.8h-3.19v-.8h1.2V.8h-1.2v-.8h3.19Z"/>
        <path class="cls-2" d="M37,0l.29.12,1.2,1.2.11.28v5.21l-.11.28-1.2,1.2-.29.12h-2.4l-.29-.12-1.2-1.2-.11-.28V1.6l.11-.28,1.2-1.2.29-.12h2.4ZM33.79,1.76v4.87l.97.96h2.06l.97-.96V1.76l-.97-.96h-2.06l-.97.96Z"/>
        <path class="cls-2" d="M40.39,0v6.64l.97.96h2.06l.97-.96V0h.79v6.8l-.11.28-1.2,1.2-.29.12h-2.4l-.29-.12-1.2-1.2-.11-.28V0h.79Z"/>
        <path class="cls-2" d="M50.2,0l.29.12,1.2,1.2-.58.56-1.08-1.08h-2.06l-.97.96v1.07l.97.97h2.23l.29.11,1.2,1.2.11.29v1.4l-.11.28-1.2,1.2-.29.12h-2.4l-.29-.12-1.2-1.2.58-.56,1.08,1.08h2.06l.97-.96v-1.07l-.97-.97h-2.23l-.29-.11-1.2-1.2-.11-.29v-1.4l.11-.28,1.2-1.2.29-.12h2.4Z"/>
        <path class="cls-2" d="M7.3,14.4l.29.12,1.2,1.2.11.28v1.4l-.11.29-1.2,1.2-.29.11h-3.2v3.8h-.79v-8l.4-.4h3.6ZM4.09,18.21h3.04l.97-.97v-1.07l-.97-.96h-3.04v3Z"/>
        <path class="cls-2" d="M13.9,14.4l.29.12,1.2,1.2.11.28v1.4l-.11.29-1.2,1.2-.29.11h-.83l2.34,3.35-.66.46-2.66-3.8h-1.39v3.8h-.79v-8l.4-.4h3.6ZM10.69,18.21h3.04l.97-.97v-1.07l-.97-.96h-3.04v3Z"/>
        <path class="cls-2" d="M20.5,14.4l.29.12,1.2,1.2.11.28v5.21l-.11.28-1.2,1.2-.29.12h-2.4l-.29-.12-1.2-1.2-.11-.28v-5.21l.11-.28,1.2-1.2.29-.12h2.4ZM17.29,16.17v4.87l.97.96h2.06l.97-.96v-4.87l-.97-.96h-2.06l-.97.96Z"/>
        <path class="cls-2" d="M28.44,14.4v.8h-1.2v6l-.12.28-1.2,1.2-.29.12h-.79l-.29-.12-1.2-1.2.56-.56,1.09,1.08h.47l.96-.96v-5.83h-1.2v-.8h3.2Z"/>
        <path class="cls-2" d="M35.1,14.4v.8h-4.4v3h3.6v.79h-3.6v3h4.4v.8h-4.8l-.41-.4v-7.61l.41-.4h4.8Z"/>
        <path class="cls-2" d="M40.35,14.4l.28.12,1.2,1.2-.56.56-1.08-1.08h-2.06l-.97.96v4.87l.97.96h2.06l1.08-1.08.56.56-1.2,1.2-.28.12h-2.4l-.29-.12-1.2-1.2-.11-.28v-5.21l.11-.28,1.2-1.2.29-.12h2.4Z"/>
        <path class="cls-2" d="M48.1,14.4v.8h-2v7.6h-.79v-7.6h-2v-.8h4.8Z"/>
      </g>
    </g>
  </g>
</svg>