<?xml version="1.0" encoding="UTF-8"?>
<svg id="Layer_2" data-name="Layer 2" xmlns="http://www.w3.org/2000/svg" viewBox="0 0 238.47 50.64">
  <defs>
    <style>
      .cls-1 {
        fill: #b3b3b3;
      }
    </style>
  </defs>
  <g id="Layer_1-2" data-name="Layer 1">
    <g>
      <path class="cls-1" d="M.62,18.32v-1.41h6.9c.91,0,1.66-.08,2.27-.26.61-.17,1.06-.42,1.35-.75.29-.33.5-.67.61-1.01.11-.34.17-.75.17-1.21,0-.89-.25-1.59-.75-2.1-.5-.51-1.51-.99-3.01-1.46l-2.52-.79c-.98-.31-1.79-.63-2.44-.98-.65-.35-1.14-.73-1.49-1.14s-.58-.83-.72-1.25c-.13-.42-.2-.92-.2-1.48s.08-1.08.24-1.55c.16-.47.43-.93.83-1.37s.98-.79,1.75-1.04,1.72-.38,2.82-.38h6.11v1.41h-6.11c-1.53,0-2.59.25-3.19.76-.59.51-.89,1.23-.89,2.16,0,.76.25,1.39.74,1.91.5.51,1.4.99,2.71,1.41l2.35.77c1.16.39,2.1.76,2.8,1.1.7.34,1.24.72,1.62,1.14.37.42.62.83.73,1.25.12.42.17.95.17,1.6,0,.47-.04.89-.12,1.28-.08.39-.25.8-.5,1.24s-.58.81-1,1.11c-.42.3-.99.55-1.74.74-.74.2-1.61.29-2.6.29H.62Z"/>
      <path class="cls-1" d="M26.64,18.32c-.94,0-1.78-.07-2.52-.21s-1.36-.32-1.85-.54c-.5-.22-.92-.51-1.29-.86-.36-.35-.64-.7-.84-1.05s-.35-.76-.46-1.24c-.11-.48-.18-.92-.21-1.3-.03-.39-.05-.84-.05-1.37v-5.01c0-.53.02-.98.05-1.37.03-.38.1-.82.21-1.3.11-.48.26-.9.46-1.25s.47-.7.84-1.06c.36-.35.79-.64,1.29-.86.5-.22,1.11-.4,1.85-.54s1.58-.21,2.52-.21h5.64v5.64h-1.56V1.56h-4.08c-.97,0-1.8.09-2.51.28-.7.18-1.25.42-1.65.72-.4.29-.71.68-.95,1.16s-.38.94-.45,1.4c-.07.45-.1,1-.1,1.63v5.01c0,.64.03,1.18.1,1.63.07.45.22.92.45,1.39.23.47.55.85.95,1.15.4.29.95.53,1.65.72.7.18,1.54.28,2.51.28h5.64v1.41h-5.64Z"/>
      <path class="cls-1" d="M38.23,18.32V.15h7.53c.87,0,1.63.1,2.29.3.65.2,1.17.46,1.55.78s.68.71.91,1.17c.23.46.38.91.46,1.34.08.43.12.91.12,1.42v.62c0,2.99-1.41,4.64-4.24,4.96l4.87,7.58h-1.87l-4.83-7.53h-5.21v7.53h-1.56ZM39.79,9.4h5.97c1.37,0,2.34-.3,2.91-.89.57-.59.85-1.5.85-2.73v-.62c0-1.22-.28-2.13-.85-2.72-.57-.59-1.54-.88-2.91-.88h-5.97v7.84Z"/>
      <path class="cls-1" d="M62.83,18.49c-1.21,0-2.23-.16-3.06-.49-.83-.32-1.46-.8-1.89-1.42s-.74-1.31-.91-2.05c-.17-.74-.26-1.62-.26-2.63v-5.32c0-1.02.09-1.89.26-2.63s.47-1.42.91-2.05c.43-.62,1.06-1.1,1.89-1.41.83-.32,1.85-.48,3.06-.48h1.25c1.21,0,2.23.16,3.06.48.83.32,1.46.79,1.89,1.41.43.62.74,1.31.91,2.05s.26,1.62.26,2.63v5.32c0,1.02-.09,1.89-.26,2.63-.17.74-.47,1.42-.91,2.05s-1.06,1.1-1.89,1.42c-.83.32-1.85.49-3.06.49h-1.25ZM58.28,11.9c0,1.86.35,3.19,1.05,3.98.7.8,1.87,1.19,3.51,1.19h1.25c1.65,0,2.82-.39,3.52-1.18.69-.79,1.04-2.12,1.04-3.99v-5.32c0-1.87-.35-3.2-1.04-3.99-.69-.79-1.86-1.18-3.52-1.18h-1.25c-1.65,0-2.82.39-3.52,1.18-.69.79-1.04,2.12-1.04,3.99v5.32Z"/>
      <path class="cls-1" d="M76,18.32V.15h1.56v16.76h10.96v1.41h-12.52Z"/>
      <path class="cls-1" d="M94.8,18.32V.15h1.56v16.76h10.96v1.41h-12.52Z"/>
      <path class="cls-1" d="M132.24,18.32V.15h6.74c1.21,0,2.23.16,3.06.49s1.46.8,1.89,1.42c.43.62.74,1.31.91,2.05.17.74.26,1.62.26,2.63v5.01c0,1.02-.09,1.89-.26,2.63-.17.74-.47,1.42-.91,2.05-.43.62-1.06,1.1-1.89,1.41s-1.85.48-3.06.48h-6.74ZM133.8,16.91h5.18c1.65,0,2.82-.39,3.52-1.17s1.04-2.11,1.04-3.98v-5.01c0-1.87-.35-3.2-1.04-3.99-.69-.79-1.86-1.18-3.52-1.18h-5.18v15.35Z"/>
      <path class="cls-1" d="M156.84,18.49c-1.21,0-2.23-.16-3.06-.49-.83-.32-1.46-.8-1.89-1.42s-.74-1.31-.91-2.05c-.17-.74-.26-1.62-.26-2.63v-5.32c0-1.02.09-1.89.26-2.63s.47-1.42.91-2.05c.43-.62,1.06-1.1,1.89-1.41.83-.32,1.85-.48,3.06-.48h1.25c1.21,0,2.23.16,3.06.48.83.32,1.46.79,1.89,1.41.43.62.74,1.31.91,2.05s.26,1.62.26,2.63v5.32c0,1.02-.09,1.89-.26,2.63-.17.74-.47,1.42-.91,2.05s-1.06,1.1-1.89,1.42c-.83.32-1.85.49-3.06.49h-1.25ZM152.29,11.9c0,1.86.35,3.19,1.05,3.98.7.8,1.87,1.19,3.51,1.19h1.25c1.65,0,2.82-.39,3.52-1.18.69-.79,1.04-2.12,1.04-3.99v-5.32c0-1.87-.35-3.2-1.04-3.99-.69-.79-1.86-1.18-3.52-1.18h-1.25c-1.65,0-2.82.39-3.52,1.18-.69.79-1.04,2.12-1.04,3.99v5.32Z"/>
      <path class="cls-1" d="M170.63,18.32L167.97.15h1.56l2.35,16.3L175.48.15h1.58l3.6,16.3L183,.15h1.56l-2.66,18.18h-2.26l-3.38-15.22-3.38,15.22h-2.26Z"/>
      <path class="cls-1" d="M188.33,18.32V.15h1.56l10.36,15.35V.15h1.56v18.18h-1.56l-10.36-15.35v15.35h-1.56Z"/>
      <path class="cls-1" d="M6.26,50.32v-16.76H0v-1.41h14.1v1.41h-6.26v16.76h-1.58Z"/>
      <path class="cls-1" d="M25.23,50.49c-1.21,0-2.23-.16-3.06-.49-.83-.32-1.46-.8-1.89-1.42s-.74-1.31-.91-2.05c-.17-.74-.26-1.62-.26-2.63v-5.32c0-1.02.09-1.89.26-2.63s.47-1.42.91-2.05c.43-.62,1.06-1.1,1.89-1.41.83-.32,1.85-.48,3.06-.48h1.25c1.21,0,2.23.16,3.06.48.83.32,1.46.79,1.89,1.41.43.62.74,1.31.91,2.05s.26,1.62.26,2.63v5.32c0,1.02-.09,1.89-.26,2.63-.17.74-.47,1.42-.91,2.05s-1.06,1.1-1.89,1.42c-.83.32-1.85.49-3.06.49h-1.25ZM20.67,43.9c0,1.86.35,3.19,1.05,3.98.7.8,1.87,1.19,3.51,1.19h1.25c1.65,0,2.82-.39,3.52-1.18.69-.79,1.04-2.12,1.04-3.99v-5.32c0-1.87-.35-3.2-1.04-3.99-.69-.79-1.86-1.18-3.52-1.18h-1.25c-1.65,0-2.82.39-3.52,1.18-.69.79-1.04,2.12-1.04,3.99v5.32Z"/>
      <path class="cls-1" d="M57.03,50.32v-18.18h6.74c1.21,0,2.23.16,3.06.49s1.46.8,1.89,1.42c.43.62.74,1.31.91,2.05.17.74.26,1.62.26,2.63v5.01c0,1.02-.09,1.89-.26,2.63-.17.74-.47,1.42-.91,2.05-.43.62-1.06,1.1-1.89,1.41s-1.85.48-3.06.48h-6.74ZM58.59,48.91h5.18c1.65,0,2.82-.39,3.52-1.17s1.04-2.11,1.04-3.98v-5.01c0-1.87-.35-3.2-1.04-3.99-.69-.79-1.86-1.18-3.52-1.18h-5.18v15.35Z"/>
      <path class="cls-1" d="M76,50.32v-1.41h5.47v-15.35h-5.47v-1.41h12.52v1.41h-5.47v15.35h5.47v1.41h-12.52Z"/>
      <path class="cls-1" d="M94.63,50.32v-1.41h6.9c.91,0,1.66-.08,2.27-.26.61-.17,1.06-.42,1.35-.75.29-.33.5-.67.61-1.01.11-.34.17-.75.17-1.21,0-.89-.25-1.59-.75-2.1-.5-.51-1.51-.99-3.01-1.46l-2.52-.79c-.98-.31-1.79-.63-2.44-.98-.65-.35-1.14-.73-1.49-1.14s-.58-.83-.72-1.25c-.13-.42-.2-.92-.2-1.48s.08-1.08.24-1.55c.16-.47.43-.93.83-1.37s.98-.79,1.75-1.04,1.72-.38,2.82-.38h6.11v1.41h-6.11c-1.53,0-2.59.25-3.19.76-.59.51-.89,1.23-.89,2.16,0,.76.25,1.39.74,1.91.5.51,1.4.99,2.71,1.41l2.35.77c1.16.39,2.1.76,2.8,1.1.7.34,1.24.72,1.62,1.14.37.42.62.83.73,1.25.12.42.17.95.17,1.6,0,.47-.04.89-.12,1.28-.08.39-.25.8-.5,1.24s-.58.81-1,1.11c-.42.3-.99.55-1.74.74-.74.2-1.61.29-2.6.29h-6.9Z"/>
      <path class="cls-1" d="M120.65,50.32c-.94,0-1.78-.07-2.52-.21s-1.36-.32-1.85-.54c-.5-.22-.92-.51-1.29-.86-.36-.35-.64-.7-.84-1.05s-.35-.76-.46-1.24c-.11-.48-.18-.92-.21-1.3-.03-.39-.05-.84-.05-1.37v-5.01c0-.53.02-.98.05-1.37.03-.38.1-.82.21-1.3.11-.48.26-.9.46-1.25s.47-.7.84-1.06c.36-.35.79-.64,1.29-.86.5-.22,1.11-.4,1.85-.54s1.58-.21,2.52-.21h5.64v5.64h-1.56v-4.22h-4.08c-.97,0-1.8.09-2.51.28-.7.18-1.25.42-1.65.72-.4.29-.71.68-.95,1.16s-.38.94-.45,1.4c-.07.45-.1,1-.1,1.63v5.01c0,.64.03,1.18.1,1.63.07.45.22.92.45,1.39.23.47.55.85.95,1.15.4.29.95.53,1.65.72.7.18,1.54.28,2.51.28h5.64v1.41h-5.64Z"/>
      <path class="cls-1" d="M138.04,50.49c-1.21,0-2.23-.16-3.06-.49-.83-.32-1.46-.8-1.89-1.42s-.74-1.31-.91-2.05c-.17-.74-.26-1.62-.26-2.63v-5.32c0-1.02.09-1.89.26-2.63s.47-1.42.91-2.05c.43-.62,1.06-1.1,1.89-1.41.83-.32,1.85-.48,3.06-.48h1.25c1.21,0,2.23.16,3.06.48.83.32,1.46.79,1.89,1.41.43.62.74,1.31.91,2.05s.26,1.62.26,2.63v5.32c0,1.02-.09,1.89-.26,2.63-.17.74-.47,1.42-.91,2.05s-1.06,1.1-1.89,1.42c-.83.32-1.85.49-3.06.49h-1.25ZM133.48,43.9c0,1.86.35,3.19,1.05,3.98.7.8,1.87,1.19,3.51,1.19h1.25c1.65,0,2.82-.39,3.52-1.18.69-.79,1.04-2.12,1.04-3.99v-5.32c0-1.87-.35-3.2-1.04-3.99-.69-.79-1.86-1.18-3.52-1.18h-1.25c-1.65,0-2.82.39-3.52,1.18-.69.79-1.04,2.12-1.04,3.99v5.32Z"/>
      <path class="cls-1" d="M156.53,50.32l-6.28-18.18h1.63l5.64,16.62,5.58-16.62h1.58l-6.28,18.18h-1.87Z"/>
      <path class="cls-1" d="M170,50.32v-18.18h12.52v1.41h-10.96v6.89h8.78v1.41h-8.78v7.05h10.96v1.41h-12.52Z"/>
      <path class="cls-1" d="M188.64,50.32v-18.18h7.53c.87,0,1.63.1,2.29.3.65.2,1.17.46,1.55.78s.68.71.91,1.17c.23.46.38.91.46,1.34.08.43.12.91.12,1.42v.62c0,2.99-1.41,4.64-4.24,4.96l4.87,7.58h-1.87l-4.83-7.53h-5.21v7.53h-1.56ZM190.2,41.4h5.97c1.37,0,2.34-.3,2.91-.89.57-.59.85-1.5.85-2.73v-.62c0-1.22-.28-2.13-.85-2.72-.57-.59-1.54-.88-2.91-.88h-5.97v7.84Z"/>
      <path class="cls-1" d="M232.67,50.64l-5.8-6.11,1.1-1.08,3.91,4.06v-12.83h1.58v12.83l3.91-4.06,1.1,1.08-5.8,6.11Z"/>
    </g>
  </g>
</svg>