<?xml version="1.0" encoding="UTF-8"?>
<svg id="Layer_2" data-name="Layer 2" xmlns="http://www.w3.org/2000/svg" viewBox="0 0 25.38 46.89">
  <defs>
    <style>
      .cls-1 {
        fill: #08ad4b;
      }

      .cls-2 {
        fill: #bcbec0;
      }
    </style>
  </defs>
  <g id="BASE">
    <g>
      <g>
        <polygon class="cls-1" points="7.64 38.36 16.2 38.36 12.25 36.37 12.75 35.44 18.24 38.32 18.24 39.27 12.75 42.15 12.25 41.22 16.18 39.23 7.64 39.23 7.64 38.36"/>
        <path class="cls-1" d="M12.86,30.71c-4.47,0-8.09,3.62-8.09,8.09s3.62,8.09,8.09,8.09,8.09-3.62,8.09-8.09-3.63-8.09-8.09-8.09ZM12.86,45.75c-3.84,0-6.96-3.11-6.96-6.95s3.12-6.96,6.96-6.96,6.95,3.12,6.95,6.96-3.11,6.95-6.95,6.95Z"/>
      </g>
      <g>
        <path class="cls-2" d="M7.38,0l.29.12,1.2,1.2-.58.56-1.08-1.08h-2.06l-.97.96v1.07l.97.97h2.23l.29.11,1.2,1.2.11.29v1.4l-.11.28-1.2,1.2-.29.12h-2.4l-.29-.12-1.2-1.2.58-.56,1.08,1.08h2.06l.97-.96v-1.07l-.97-.97h-2.23l-.29-.11-1.2-1.2-.11-.29v-1.4l.11-.28L4.69.12l.29-.12h2.4Z"/>
        <path class="cls-2" d="M15.38,0v.8h-4.4v3h3.6v.79h-3.6v3h4.4v.8h-4.8l-.41-.4V.4l.41-.4h4.8Z"/>
        <path class="cls-2" d="M21.98,0v.8h-4.4v3h3.6v.79h-3.6v3h4.4v.8h-4.8l-.41-.4V.4l.41-.4h4.8Z"/>
        <path class="cls-2" d="M1.63,20.05l.85-5.65h.79l.85,5.65.84-5.65.79.12-1.25,8.28h-.78l-.85-5.65-.85,5.65h-.78L0,14.52l.79-.12.84,5.65Z"/>
        <path class="cls-2" d="M10.68,14.4l.29.12,1.2,1.2.11.28v5.21l-.11.28-1.2,1.2-.29.12h-2.4l-.29-.12-1.2-1.2-.11-.28v-5.21l.11-.28,1.2-1.2.29-.12h2.4ZM7.48,16.17v4.87l.97.96h2.06l.97-.96v-4.87l-.97-.96h-2.06l-.97.96Z"/>
        <path class="cls-2" d="M17.28,14.4l.29.12,1.2,1.2.11.28v1.4l-.11.29-1.2,1.2-.29.11h-.83l2.34,3.35-.66.46-2.66-3.8h-1.39v3.8h-.79v-8l.4-.4h3.6ZM14.08,18.21h3.04l.97-.97v-1.07l-.97-.96h-3.04v3Z"/>
        <path class="cls-2" d="M20.78,14.4v4.03l4.03-4.03.56.56-3.64,3.64,3.64,3.64-.56.56-3.64-3.64-.4.41v3.23h-.8v-8.4h.8Z"/>
      </g>
    </g>
  </g>
</svg>